<svg width="77" height="77" viewBox="0 0 77 77" fill="none" xmlns="http://www.w3.org/2000/svg">
<path d="M32.3474 30.3322C26.8616 32.1215 24.5101 36.0113 23.5096 39.5875C22.9747 41.4997 22.8303 43.3195 22.8217 44.6664C22.8174 45.3379 22.8468 45.8865 22.8768 46.2635C22.8918 46.4519 22.9069 46.597 22.9179 46.6927C22.9234 46.7405 22.9279 46.776 22.9309 46.7983L22.934 46.8218L22.9345 46.8249C22.9345 46.8251 22.9345 46.8254 22.9346 46.8256M32.3474 30.3322L20.9098 46.7219C20.9174 46.7993 20.9247 46.866 20.9311 46.9213C20.9378 46.9801 20.9436 47.0261 20.9479 47.0587L20.9531 47.0973L20.9547 47.1088L20.9553 47.1126L20.9555 47.114C20.9555 47.1146 20.9556 47.1151 21.945 46.97M32.3474 30.3322C32.4314 30.6886 32.5425 31.119 32.6864 31.6064C33.1051 33.025 33.8058 34.9412 34.9361 36.9256C37.201 40.9016 41.2304 45.206 48.1721 46.2269C54.3879 47.141 56.9727 50.1027 58.0814 52.704C58.6503 54.0387 58.8499 55.3268 58.9053 56.2857C58.9329 56.7634 58.9245 57.1539 58.9097 57.4202C58.9023 57.5531 58.8934 57.6545 58.8868 57.7197C58.8835 57.7522 58.8807 57.7757 58.8791 57.7895L58.8776 57.801L58.8775 57.8021C58.813 58.257 59.0668 58.6974 59.4928 58.8696C59.9192 59.0419 60.4081 58.9013 60.6777 58.5287L59.8676 57.9425C60.6777 58.5287 60.678 58.5282 60.6784 58.5277L60.6795 58.5262L60.6829 58.5215L60.6942 58.5056C60.6985 58.4997 60.7034 58.4927 60.7092 58.4845C60.7165 58.4743 60.725 58.4622 60.7347 58.4484C60.7693 58.3991 60.819 58.3274 60.8821 58.2344C61.0083 58.0485 61.1882 57.7771 61.4078 57.4282C61.847 56.7307 62.4466 55.7216 63.0961 54.4642C64.3927 51.9539 65.9008 48.4297 66.7188 44.4018C67.5371 40.3723 67.6714 35.8037 66.1779 31.238C64.7028 26.7288 61.6627 22.294 56.2701 18.4209C56.2438 18.3535 56.213 18.2762 56.1775 18.1898C56.0413 17.8579 55.8358 17.3901 55.5534 16.8317C54.9897 15.7169 54.1136 14.2285 52.8614 12.736C50.3514 9.74426 46.2916 6.70001 40.2325 6.70001C34.1939 6.70001 29.7187 9.72431 26.7934 12.6747C25.3283 14.1523 24.2349 15.6272 23.507 16.7331C23.1425 17.2869 22.8681 17.7505 22.6832 18.0789C22.6729 18.0972 22.6629 18.1151 22.6531 18.1326M32.3474 30.3322L22.6531 18.1326M22.9346 46.8256C22.9345 46.8253 22.9345 46.8249 21.945 46.97M22.9346 46.8256C22.9802 47.1384 22.8753 47.4543 22.6516 47.6776C22.4278 47.9011 22.1114 48.0056 21.7985 47.9592L21.945 46.97M22.9346 46.8256L22.6531 18.1326M21.945 46.97C21.7985 47.9592 21.7979 47.9591 21.7972 47.959L21.7957 47.9588L21.7919 47.9582L21.7816 47.9566L21.7497 47.9514C21.7235 47.947 21.6876 47.9407 21.6427 47.9322C21.5528 47.9153 21.4266 47.8895 21.2692 47.8524C20.9546 47.7783 20.5139 47.6589 19.9889 47.4742C18.9412 47.1055 17.5436 46.4719 16.1428 45.4083C13.303 43.2522 10.55 39.4001 10.55 32.725C10.55 25.9919 13.6951 22.27 16.8926 20.2781C18.4676 19.2969 20.0349 18.7458 21.2041 18.4391C21.7904 18.2853 22.2817 18.1917 22.6307 18.1361C22.6383 18.1349 22.6457 18.1337 22.6531 18.1326" fill="#F26564" stroke="black" stroke-width="2" stroke-miterlimit="10" stroke-linecap="round" stroke-linejoin="round"/>
<path d="M56.595 50.82C56.595 50.82 48.7026 69.1075 38.8851 69.1075C31.2676 69.1075 25.3381 58.3764 23.196 53.9" stroke="black" stroke-width="2" stroke-miterlimit="10" stroke-linecap="round" stroke-linejoin="round"/>
</svg>
