<svg width="68" height="68" viewBox="0 0 68 68" fill="none" xmlns="http://www.w3.org/2000/svg">
<path d="M18.4167 26.9167C18.4167 25.3518 19.6852 24.0833 21.2501 24.0833H43.9167C45.4816 24.0833 46.7501 25.3518 46.7501 26.9167V53.8333C46.7501 53.8333 46.7501 62.3333 38.2501 62.3333C29.7501 62.3333 35.4167 62.3333 26.9167 62.3333C18.4167 62.3333 18.4167 53.8333 18.4167 53.8333V26.9167Z" fill="#F26564" stroke="black" stroke-width="2" stroke-linecap="round" stroke-linejoin="round"/>
<path d="M39.6667 17H25.5V24.0833H39.6667V17Z" stroke="black" stroke-width="2" stroke-linecap="round" stroke-linejoin="round"/>
<path d="M25.5 17C25.5 14.1667 25.5001 17 25.5 12.75C25.4999 8.50001 29.75 5.66667 34 5.66667C38.25 5.66667 49.5833 5.66667 49.5833 5.66667C49.5833 5.66667 39.6668 8.50001 39.6667 14.1667C39.6665 19.8333 39.6667 17 39.6667 17" stroke="black" stroke-width="2" stroke-linecap="round" stroke-linejoin="round"/>
</svg>
