<svg width="72" height="72" viewBox="0 0 72 72" fill="none" xmlns="http://www.w3.org/2000/svg">
<path d="M28.44 37.08C28.44 37.08 13.32 25.56 23.76 9L41.4 56.52" stroke="black" stroke-width="2" stroke-miterlimit="10" stroke-linecap="round" stroke-linejoin="round"/>
<path d="M49.6801 63.72C54.3524 63.72 58.14 59.9323 58.14 55.26C58.14 50.5877 54.3524 46.8 49.6801 46.8C45.0077 46.8 41.22 50.5877 41.22 55.26C41.22 59.9323 45.0077 63.72 49.6801 63.72Z" fill="#F26564" stroke="black" stroke-width="2" stroke-miterlimit="10" stroke-linecap="round" stroke-linejoin="round"/>
<path d="M44.28 37.08C44.28 37.08 59.4 25.56 48.96 9L31.32 56.52" stroke="black" stroke-width="2" stroke-miterlimit="10" stroke-linecap="round" stroke-linejoin="round"/>
<path d="M22.86 63.72C27.5323 63.72 31.32 59.9323 31.32 55.26C31.32 50.5877 27.5323 46.8 22.86 46.8C18.1877 46.8 14.4 50.5877 14.4 55.26C14.4 59.9323 18.1877 63.72 22.86 63.72Z" fill="#F26564" stroke="black" stroke-width="2" stroke-miterlimit="10" stroke-linecap="round" stroke-linejoin="round"/>
</svg>
